{
  "accessors": [
    {
      "bufferView": 2,
      "componentType": 5126,
      "count": 65532,
      "max": [
        45.12670135498047,
        49.52254867553711,
        -43.97071075439453
      ],
      "min": [
        -45.122100830078125,
        -49.34846115112305,
        -73.90519714355469
      ],
      "type": "VEC3"
    },
    {
      "bufferView": 2,
      "byteOffset": 786384,
      "componentType": 5126,
      "count": 65532,
      "max": [
        0.9998404383659363,
        0.9999678730964661,
        0.9999976754188538
      ],
      "min": [
        -0.9997959136962891,
        -0.9985843896865845,
        -0.9999992847442627
      ],
      "type": "VEC3"
    },
    {
      "bufferView": 1,
      "componentType": 5126,
      "count": 65532,
      "max": [
        0.9996299743652344,
        0.9976300001144409
      ],
      "min": [
        0.0023799999617040157,
        0.15129999816417694
      ],
      "type": "VEC2"
    },
    {
      "bufferView": 0,
      "componentType": 5125,
      "count": 277899,
      "type": "SCALAR"
    },
    {
      "bufferView": 2,
      "byteOffset": 1572768,
      "componentType": 5126,
      "count": 7598,
      "max": [
        45.12670135498047,
        49.02566909790039,
        -52.48006057739258
      ],
      "min": [
        -43.29813003540039,
        -49.36389923095703,
        -64.81591796875
      ],
      "type": "VEC3"
    },
    {
      "bufferView": 2,
      "byteOffset": 1663944,
      "componentType": 5126,
      "count": 7598,
      "max": [
        0.9998404383659363,
        0.9773773550987244,
        0.9611057639122009
      ],
      "min": [
        -0.9481713175773621,
        -0.9988174438476563,
        -0.9999876618385315
      ],
      "type": "VEC3"
    },
    {
      "bufferView": 1,
      "byteOffset": 524256,
      "componentType": 5126,
      "count": 7598,
      "max": [
        0.9996299743652344,
        0.9960399866104126
      ],
      "min": [
        0.003920000046491623,
        0.23196999728679657
      ],
      "type": "VEC2"
    },
    {
      "bufferView": 0,
      "byteOffset": 1111596,
      "componentType": 5125,
      "count": 10833,
      "type": "SCALAR"
    }
  ],
  "asset": {
    "extras": {
      "author": "Mr. Trevor (https://sketchfab.com/tjmartin97)",
      "license": "CC-BY-4.0 (http://creativecommons.org/licenses/by/4.0/)",
      "source": "https://sketchfab.com/3d-models/bun-brioche-hamburger-top-6cf41ad3c977448487cb564a4e7cad08",
      "title": "Bun, Brioche Hamburger_top"
    },
    "generator": "Sketchfab-16.72.0",
    "version": "2.0"
  },
  "bufferViews": [
    {
      "buffer": 0,
      "byteLength": 1154928,
      "name": "floatBufferViews",
      "target": 34963
    },
    {
      "buffer": 0,
      "byteLength": 585040,
      "byteOffset": 1154928,
      "byteStride": 8,
      "name": "floatBufferViews",
      "target": 34962
    },
    {
      "buffer": 0,
      "byteLength": 1755120,
      "byteOffset": 1739968,
      "byteStride": 12,
      "name": "floatBufferViews",
      "target": 34962
    }
  ],
  "buffers": [
    {
      "byteLength": 3495088,
      "uri": "scene.bin"
    }
  ],
  "extensionsRequired": [
    "KHR_materials_pbrSpecularGlossiness"
  ],
  "extensionsUsed": [
    "KHR_materials_pbrSpecularGlossiness"
  ],
  "images": [
    {
      "uri": "textures/material0_diffuse.jpeg"
    }
  ],
  "materials": [
    {
      "doubleSided": true,
      "emissiveTexture": {
        "index": 0
      },
      "extensions": {
        "KHR_materials_pbrSpecularGlossiness": {
          "diffuseFactor": [
            1.0,
            1.0,
            1.0,
            1.0
          ],
          "diffuseTexture": {
            "index": 0
          },
          "glossinessFactor": 0.0,
          "specularFactor": [
            0.0,
            0.0,
            0.0
          ]
        }
      },
      "name": "material0"
    }
  ],
  "meshes": [
    {
      "name": "Object_0",
      "primitives": [
        {
          "attributes": {
            "NORMAL": 1,
            "POSITION": 0,
            "TEXCOORD_0": 2
          },
          "indices": 3,
          "material": 0,
          "mode": 4
        }
      ]
    },
    {
      "name": "Object_1",
      "primitives": [
        {
          "attributes": {
            "NORMAL": 5,
            "POSITION": 4,
            "TEXCOORD_0": 6
          },
          "indices": 7,
          "material": 0,
          "mode": 4
        }
      ]
    }
  ],
  "nodes": [
    {
      "children": [
        1
      ],
      "matrix": [
        0.9975687265396118,
        -0.06968998163938522,
        -1.4606922702361574e-17,
        0.0,
        0.0044635082595050335,
        0.06389234215021156,
        -0.9979467988014221,
        0.0,
        0.0695468932390213,
        0.9955205321311951,
        0.06404805928468726,
        0.0,
        0.0,
        0.0,
        0.0,
        1.0
      ],
      "name": "Sketchfab_model"
    },
    {
      "children": [
        2,
        3
      ],
      "name": "model_New Qlone.33_20201014_155717707.obj.cleaner.materialmerger.gles"
    },
    {
      "mesh": 0,
      "name": "Object_2"
    },
    {
      "mesh": 1,
      "name": "Object_3"
    }
  ],
  "samplers": [
    {
      "magFilter": 9729,
      "minFilter": 9987,
      "wrapS": 10497,
      "wrapT": 10497
    }
  ],
  "scene": 0,
  "scenes": [
    {
      "name": "Sketchfab_Scene",
      "nodes": [
        0
      ]
    }
  ],
  "textures": [
    {
      "sampler": 0,
      "source": 0
    }
  ]
}
